<svg width="320" height="320" viewBox="0 0 320 320" fill="none" xmlns="http://www.w3.org/2000/svg">
<rect width="320" height="320" fill="white"/>
<path d="M299.5 186.537C295.328 230.059 260.167 195 220.239 231.268C188.263 260.313 212.491 295.946 166.603 295.946C128.463 295.946 109.392 266.548 109.392 213.134C109.392 159.72 152.083 116.419 204.744 116.419C257.405 116.419 299.5 144.829 299.5 186.537Z" fill="black"/>
<ellipse cx="56.9488" cy="179.284" rx="36.9488" ry="45.9397" fill="black"/>
<ellipse cx="42.5439" cy="32.7999" rx="42.5439" ry="32.7999" transform="matrix(0.915807 -0.401617 0.392124 0.919912 70.8396 58.1727)" fill="black"/>
<ellipse cx="35.7681" cy="29.61" rx="35.7681" ry="29.61" transform="matrix(0.98881 0.149182 -0.145095 0.989418 209.43 37.6601)" fill="black"/>
</svg>
