<svg width="320" height="320" viewBox="0 0 320 320" fill="none" xmlns="http://www.w3.org/2000/svg">
<g clip-path="url(#clip0_31_548)">
<rect width="320" height="320" fill="white"/>
<path d="M45.8816 173.078C45.0326 181.936 37.8769 174.801 29.751 182.182C23.2435 188.092 28.1743 195.344 18.8355 195.344C11.0734 195.344 7.19238 189.361 7.19238 178.491C7.19238 167.621 15.8804 158.808 26.5976 158.808C37.3148 158.808 45.8816 164.59 45.8816 173.078Z" fill="black"/>
<ellipse cx="-3.48047" cy="171.602" rx="7.51953" ry="9.34927" fill="black"/>
<ellipse cx="8.65818" cy="6.67518" rx="8.65818" ry="6.67518" transform="matrix(0.915807 -0.401617 0.392124 0.919912 -0.653503 146.955)" fill="black"/>
<ellipse cx="7.27923" cy="6.02599" rx="7.27923" ry="6.02599" transform="matrix(0.98881 0.149182 -0.145095 0.989418 27.5511 142.78)" fill="black"/>
<path d="M164.022 87.6352C160.366 95.747 155.889 86.6877 145.819 91.0584C137.755 94.5585 140.087 103.012 131.246 100.004C123.897 97.5045 122.15 90.5905 125.651 80.2993C129.152 70.008 140.215 64.4634 150.361 67.9149C160.507 71.3665 166.756 79.5993 164.022 87.6352Z" fill="black"/>
<ellipse cx="117.765" cy="70.34" rx="7.51953" ry="9.34927" transform="rotate(18.7876 117.765 70.34)" fill="black"/>
<ellipse cx="8.65818" cy="6.67518" rx="8.65818" ry="6.67518" transform="matrix(0.996358 -0.0852731 0.074964 0.997186 128.38 47.9163)" fill="black"/>
<ellipse cx="7.27923" cy="6.02599" rx="7.27923" ry="6.02599" transform="matrix(0.888079 0.459691 -0.456017 0.889971 156.426 53.0477)" fill="black"/>
<path d="M215.022 33.6352C211.366 41.747 206.889 32.6877 196.819 37.0584C188.755 40.5585 191.087 49.012 182.246 46.0044C174.897 43.5045 173.15 36.5905 176.651 26.2993C180.152 16.008 191.215 10.4634 201.361 13.9149C211.507 17.3665 217.756 25.5993 215.022 33.6352Z" fill="black"/>
<ellipse cx="168.765" cy="16.34" rx="7.51953" ry="9.34927" transform="rotate(18.7876 168.765 16.34)" fill="black"/>
<ellipse cx="8.65818" cy="6.67518" rx="8.65818" ry="6.67518" transform="matrix(0.996358 -0.0852731 0.074964 0.997186 179.38 -6.08374)" fill="black"/>
<ellipse cx="7.27923" cy="6.02599" rx="7.27923" ry="6.02599" transform="matrix(0.888079 0.459691 -0.456017 0.889971 207.426 -0.952271)" fill="black"/>
<path d="M61.8816 70.0783C61.0326 78.9355 53.8769 71.8005 45.751 79.1815C39.2435 85.0924 44.1743 92.3443 34.8355 92.3443C27.0734 92.3443 23.1924 86.3615 23.1924 75.491C23.1924 64.6206 31.8804 55.8083 42.5976 55.8083C53.3148 55.8083 61.8816 61.5901 61.8816 70.0783Z" fill="black"/>
<ellipse cx="12.5195" cy="68.6021" rx="7.51953" ry="9.34927" fill="black"/>
<ellipse cx="8.65818" cy="6.67518" rx="8.65818" ry="6.67518" transform="matrix(0.915807 -0.401617 0.392124 0.919912 15.3465 43.9546)" fill="black"/>
<ellipse cx="7.27923" cy="6.02599" rx="7.27923" ry="6.02599" transform="matrix(0.98881 0.149182 -0.145095 0.989418 43.5511 39.78)" fill="black"/>
<path d="M302.882 208.078C302.033 216.936 294.877 209.801 286.751 217.182C280.244 223.092 285.174 230.344 275.836 230.344C268.073 230.344 264.192 224.361 264.192 213.491C264.192 202.621 272.88 193.808 283.598 193.808C294.315 193.808 302.882 199.59 302.882 208.078Z" fill="black"/>
<ellipse cx="253.52" cy="206.602" rx="7.51953" ry="9.34927" fill="black"/>
<ellipse cx="8.65818" cy="6.67518" rx="8.65818" ry="6.67518" transform="matrix(0.915807 -0.401617 0.392124 0.919912 256.346 181.955)" fill="black"/>
<ellipse cx="7.27923" cy="6.02599" rx="7.27923" ry="6.02599" transform="matrix(0.98881 0.149182 -0.145095 0.989418 284.551 177.78)" fill="black"/>
<path d="M178.574 167.118C182.95 174.865 172.998 173.114 170.563 183.818C168.613 192.39 176.808 195.512 169.152 200.859C162.788 205.304 156.18 202.622 149.956 193.71C143.731 184.798 145.807 172.599 154.593 166.462C163.379 160.325 173.713 160.159 178.574 167.118Z" fill="black"/>
<ellipse cx="137.261" cy="194.174" rx="7.51953" ry="9.34927" transform="rotate(-34.9341 137.261 194.174)" fill="black"/>
<ellipse cx="8.65818" cy="6.67518" rx="8.65818" ry="6.67518" transform="matrix(0.520809 -0.853673 0.848241 0.52961 125.465 172.349)" fill="black"/>
<ellipse cx="7.27923" cy="6.02599" rx="7.27923" ry="6.02599" transform="matrix(0.896064 -0.443925 0.447624 0.894222 146.197 152.776)" fill="black"/>
<path d="M298.882 286.078C298.033 294.936 290.877 287.801 282.751 295.182C276.244 301.092 281.174 308.344 271.836 308.344C264.073 308.344 260.192 302.361 260.192 291.491C260.192 280.621 268.88 271.808 279.598 271.808C290.315 271.808 298.882 277.59 298.882 286.078Z" fill="black"/>
<ellipse cx="249.52" cy="284.602" rx="7.51953" ry="9.34927" fill="black"/>
<ellipse cx="8.65818" cy="6.67518" rx="8.65818" ry="6.67518" transform="matrix(0.915807 -0.401617 0.392124 0.919912 252.346 259.955)" fill="black"/>
<ellipse cx="7.27923" cy="6.02599" rx="7.27923" ry="6.02599" transform="matrix(0.98881 0.149182 -0.145095 0.989418 280.551 255.78)" fill="black"/>
<path d="M227.882 254.078C227.033 262.936 219.877 255.801 211.751 263.182C205.244 269.092 210.174 276.344 200.836 276.344C193.073 276.344 189.192 270.361 189.192 259.491C189.192 248.621 197.88 239.808 208.598 239.808C219.315 239.808 227.882 245.59 227.882 254.078Z" fill="black"/>
<ellipse cx="178.52" cy="252.602" rx="7.51953" ry="9.34927" fill="black"/>
<ellipse cx="8.65818" cy="6.67518" rx="8.65818" ry="6.67518" transform="matrix(0.915807 -0.401617 0.392124 0.919912 181.346 227.955)" fill="black"/>
<ellipse cx="7.27923" cy="6.02599" rx="7.27923" ry="6.02599" transform="matrix(0.98881 0.149182 -0.145095 0.989418 209.551 223.78)" fill="black"/>
<path d="M99.8816 254.078C99.0326 262.936 91.8769 255.801 83.751 263.182C77.2436 269.092 82.1743 276.344 72.8356 276.344C65.0735 276.344 61.1924 270.361 61.1924 259.491C61.1924 248.621 69.8804 239.808 80.5976 239.808C91.3149 239.808 99.8816 245.59 99.8816 254.078Z" fill="black"/>
<ellipse cx="50.5195" cy="252.602" rx="7.51953" ry="9.34927" fill="black"/>
<ellipse cx="8.65818" cy="6.67518" rx="8.65818" ry="6.67518" transform="matrix(0.915807 -0.401617 0.392124 0.919912 53.3465 227.955)" fill="black"/>
<ellipse cx="7.27923" cy="6.02599" rx="7.27923" ry="6.02599" transform="matrix(0.98881 0.149182 -0.145095 0.989418 81.5512 223.78)" fill="black"/>
<path d="M41.8816 318.078C41.0326 326.936 33.8769 319.801 25.751 327.182C19.2435 333.092 24.1743 340.344 14.8355 340.344C7.07343 340.344 3.19238 334.362 3.19238 323.491C3.19238 312.621 11.8804 303.808 22.5976 303.808C33.3148 303.808 41.8816 309.59 41.8816 318.078Z" fill="black"/>
<ellipse cx="-7.48047" cy="316.602" rx="7.51953" ry="9.34927" fill="black"/>
<ellipse cx="8.65818" cy="6.67518" rx="8.65818" ry="6.67518" transform="matrix(0.915807 -0.401617 0.392124 0.919912 -4.6535 291.955)" fill="black"/>
<ellipse cx="7.27923" cy="6.02599" rx="7.27923" ry="6.02599" transform="matrix(0.98881 0.149182 -0.145095 0.989418 23.5511 287.78)" fill="black"/>
<path d="M294.882 18.0783C294.033 26.9355 286.877 19.8005 278.751 27.1815C272.244 33.0924 277.174 40.3443 267.836 40.3443C260.073 40.3443 256.192 34.3615 256.192 23.491C256.192 12.6206 264.88 3.80835 275.598 3.80835C286.315 3.80835 294.882 9.59014 294.882 18.0783Z" fill="black"/>
<ellipse cx="245.52" cy="16.6021" rx="7.51953" ry="9.34927" fill="black"/>
<ellipse cx="8.65818" cy="6.67518" rx="8.65818" ry="6.67518" transform="matrix(0.915807 -0.401617 0.392124 0.919912 248.346 -8.04541)" fill="black"/>
<ellipse cx="7.27923" cy="6.02599" rx="7.27923" ry="6.02599" transform="matrix(0.98881 0.149182 -0.145095 0.989418 276.551 -12.22)" fill="black"/>
<path d="M166.882 308.078C166.033 316.936 158.877 309.801 150.751 317.182C144.244 323.092 149.174 330.344 139.836 330.344C132.073 330.344 128.192 324.362 128.192 313.491C128.192 302.621 136.88 293.808 147.598 293.808C158.315 293.808 166.882 299.59 166.882 308.078Z" fill="black"/>
<ellipse cx="117.52" cy="306.602" rx="7.51953" ry="9.34927" fill="black"/>
<ellipse cx="8.65818" cy="6.67518" rx="8.65818" ry="6.67518" transform="matrix(0.915807 -0.401617 0.392124 0.919912 120.346 281.955)" fill="black"/>
<ellipse cx="7.27923" cy="6.02599" rx="7.27923" ry="6.02599" transform="matrix(0.98881 0.149182 -0.145095 0.989418 148.551 277.78)" fill="black"/>
<path d="M254.309 116.409C257.015 124.886 247.628 121.142 243.063 131.126C239.407 139.121 246.794 143.847 238.209 147.522C231.073 150.577 225.151 146.604 220.872 136.611C216.594 126.618 221.113 115.098 230.966 110.88C240.818 106.662 250.969 108.606 254.309 116.409Z" fill="black"/>
<ellipse cx="208.35" cy="134.478" rx="7.51953" ry="9.34927" transform="rotate(-23.1756 208.35 134.478)" fill="black"/>
<ellipse cx="8.65818" cy="6.67518" rx="8.65818" ry="6.67518" transform="matrix(0.683848 -0.729624 0.722512 0.691358 201.249 110.707)" fill="black"/>
<ellipse cx="7.27923" cy="6.02599" rx="7.27923" ry="6.02599" transform="matrix(0.967727 -0.252002 0.255998 0.966677 225.534 95.7695)" fill="black"/>
<path d="M342.309 91.409C345.015 99.8856 335.628 96.1425 331.063 106.126C327.407 114.121 334.794 118.847 326.209 122.522C319.073 125.577 313.151 121.604 308.872 111.611C304.594 101.618 309.113 90.0976 318.966 85.8798C328.818 81.662 338.969 83.6058 342.309 91.409Z" fill="black"/>
<ellipse cx="296.35" cy="109.478" rx="7.51953" ry="9.34927" transform="rotate(-23.1756 296.35 109.478)" fill="black"/>
<ellipse cx="8.65818" cy="6.67518" rx="8.65818" ry="6.67518" transform="matrix(0.683848 -0.729624 0.722512 0.691358 289.249 85.7073)" fill="black"/>
<ellipse cx="7.27923" cy="6.02599" rx="7.27923" ry="6.02599" transform="matrix(0.967727 -0.252002 0.255998 0.966677 313.534 70.7695)" fill="black"/>
<path d="M106.19 142.048C100.334 148.747 98.6836 138.777 87.7779 140.032C79.0443 141.038 78.8191 149.804 71.2338 144.357C64.929 139.829 65.2666 132.706 71.6075 123.876C77.9484 115.047 90.1456 112.957 98.8506 119.208C107.556 125.46 111.141 135.153 106.19 142.048Z" fill="black"/>
<ellipse cx="66.957" cy="112.055" rx="7.51953" ry="9.34927" transform="rotate(35.6842 66.957 112.055)" fill="black"/>
<ellipse cx="8.65818" cy="6.67518" rx="8.65818" ry="6.67518" transform="matrix(0.97813 0.207995 -0.2181 0.975926 83.6305 93.6841)" fill="black"/>
<ellipse cx="7.27923" cy="6.02599" rx="7.27923" ry="6.02599" transform="matrix(0.716134 0.697963 -0.694998 0.719012 108.975 106.746)" fill="black"/>
</g>
<defs>
<clipPath id="clip0_31_548">
<rect width="320" height="320" fill="white"/>
</clipPath>
</defs>
</svg>
