<svg width="320" height="320" viewBox="0 0 320 320" fill="none" xmlns="http://www.w3.org/2000/svg">
<g clip-path="url(#clip0_21_137)">
<rect width="320" height="320" fill="black"/>
<rect x="-268" y="121.323" width="24" height="580.799" transform="rotate(-45 -268 121.323)" fill="white"/>
<rect x="-234.059" y="87.3818" width="24" height="580.799" transform="rotate(-45 -234.059 87.3818)" fill="white"/>
<rect x="-200.118" y="53.4407" width="24" height="580.799" transform="rotate(-45 -200.118 53.4407)" fill="white"/>
<rect x="-166.177" y="19.4996" width="24" height="580.799" transform="rotate(-45 -166.177 19.4996)" fill="white"/>
<rect x="-132.235" y="-14.4416" width="24" height="580.799" transform="rotate(-45 -132.235 -14.4416)" fill="white"/>
<rect x="-98.2944" y="-48.3827" width="24" height="580.799" transform="rotate(-45 -98.2944 -48.3827)" fill="white"/>
<rect x="-64.3533" y="-82.3238" width="24" height="580.799" transform="rotate(-45 -64.3533 -82.3238)" fill="white"/>
<rect x="-30.4121" y="-116.265" width="24" height="580.799" transform="rotate(-45 -30.4121 -116.265)" fill="white"/>
<rect x="3.52899" y="-150.206" width="24" height="580.799" transform="rotate(-45 3.52899 -150.206)" fill="white"/>
<rect x="37.4702" y="-184.147" width="24" height="580.799" transform="rotate(-45 37.4702 -184.147)" fill="white"/>
<rect x="71.4113" y="-218.088" width="24" height="580.799" transform="rotate(-45 71.4113 -218.088)" fill="white"/>
<rect x="105.352" y="-252.029" width="24" height="580.799" transform="rotate(-45 105.352 -252.029)" fill="white"/>
</g>
<defs>
<clipPath id="clip0_21_137">
<rect width="320" height="320" fill="white"/>
</clipPath>
</defs>
</svg>
