<svg width="320" height="320" viewBox="0 0 320 320" fill="none" xmlns="http://www.w3.org/2000/svg">
<path d="M254 114.931V117.284C254 125.4 257.346 133.157 263.25 138.726L270.397 145.469C276.296 151.034 277.527 159.956 273.354 166.91C268.869 174.385 270.66 184.031 277.53 189.398L284.874 195.136C291.725 200.488 292.658 210.502 286.915 217.028C280.873 223.894 282.268 234.512 289.878 239.585L292.756 241.504C300.753 246.835 303.203 257.478 298.343 265.768L296.422 269.045C292.444 275.831 285.168 280 277.302 280H42.698C34.8325 280 27.5562 275.831 23.5784 269.045L21.6573 265.768C16.7972 257.478 19.2475 246.835 27.2437 241.504L30.1225 239.585C37.7326 234.512 39.1268 223.894 33.0846 217.028C27.3417 210.502 28.2754 200.488 35.1257 195.136L42.4705 189.398C49.3401 184.031 51.1312 174.385 46.6461 166.91C42.4734 159.956 43.7037 151.034 49.6031 145.469L56.7502 138.726C62.6538 133.157 66 125.4 66 117.284V114.931C66 95.6393 81.6394 80 100.931 80H219.069C238.361 80 254 95.6393 254 114.931Z" fill="black"/>
</svg>
