<svg width="320" height="320" viewBox="0 0 320 320" fill="none" xmlns="http://www.w3.org/2000/svg">
<mask id="mask0_15_4" style="mask-type:alpha" maskUnits="userSpaceOnUse" x="90" y="106" width="140" height="131">
<rect x="90" y="106" width="140" height="131" rx="24" fill="#FFBA98"/>
</mask>
<g mask="url(#mask0_15_4)">
<path d="M90 122C90 113.163 97.1634 106 106 106H214C222.837 106 230 113.163 230 122H90Z" fill="black" fill-opacity="0.5"/>
<path d="M98 122H114C105.163 122 98 129.163 98 138V122Z" fill="black" fill-opacity="0.5"/>
<path d="M98 122H90V158C94.4183 158 98 154.418 98 150V138V122Z" fill="black" fill-opacity="0.5"/>
</g>
<path d="M212.195 114.457C235.877 137.353 246.051 165.249 234.918 176.763C223.786 188.278 195.563 179.052 171.881 156.156C148.198 133.259 138.025 105.364 149.157 93.8492C160.29 82.3345 188.513 91.561 212.195 114.457Z" fill="black"/>
<path d="M200.591 89.4781C226.025 98.5788 242.268 118.181 236.872 133.261C231.476 148.341 206.484 153.188 181.051 144.087C155.618 134.987 139.374 115.384 144.77 100.305C150.166 85.2246 175.158 80.3775 200.591 89.4781Z" fill="black"/>
<path d="M172.495 80.0215C188.233 75.039 202.862 76.9126 205.171 84.2063C207.481 91.4999 196.595 101.452 180.857 106.434C165.12 111.417 150.49 109.543 148.181 102.249C145.872 94.9557 156.758 85.0039 172.495 80.0215Z" fill="black"/>
</svg>
