<svg width="320" height="320" viewBox="0 0 320 320" fill="none" xmlns="http://www.w3.org/2000/svg">
<path d="M90 106C90 92.7452 100.745 82 114 82H166C179.255 82 190 92.7452 190 106H90Z" fill="black"/>
<path d="M90 122C90 126.418 93.5817 130 98 130H157C161.418 130 165 126.418 165 122H90Z" fill="black"/>
<path d="M222 122H206C214.837 122 222 129.163 222 138V122Z" fill="black"/>
<path d="M98 130H114C105.163 130 98 137.163 98 146V130Z" fill="black"/>
<path d="M90 106H214C222.837 106 230 113.163 230 122H90V106Z" fill="black"/>
<path d="M98 113C93.5817 113 90 116.582 90 121V158C94.4183 158 98 154.418 98 150V113Z" fill="black"/>
<path d="M222 113C226.418 113 230 116.582 230 121V158C225.582 158 222 154.418 222 150V113Z" fill="black"/>
</svg>
