<svg width="320" height="320" viewBox="0 0 320 320" fill="none" xmlns="http://www.w3.org/2000/svg">
<path d="M90 122C90 113.163 97.1634 106 106 106H214C222.837 106 230 113.163 230 122H90Z" fill="black"/>
<path d="M98 113C93.5817 113 90 116.582 90 121V158C94.4183 158 98 154.418 98 150V113Z" fill="black"/>
<path d="M222 113C226.418 113 230 116.582 230 121V158C225.582 158 222 154.418 222 150V113Z" fill="black"/>
<path d="M222 122H206C214.837 122 222 129.163 222 138V122Z" fill="black"/>
<path d="M98 122H114C105.163 122 98 129.163 98 138V122Z" fill="black"/>
<path d="M185.09 109.757C184.059 116.332 167.727 119.233 148.612 116.236C129.496 113.24 114.836 105.48 115.866 98.9052C116.897 92.3301 133.229 89.4293 152.344 92.426C171.46 95.4227 186.121 103.182 185.09 109.757Z" fill="black"/>
<path d="M196.007 113.441C193.019 117.297 181.509 113.38 170.299 104.693C159.088 96.0062 152.422 85.838 155.41 81.9819C158.398 78.1259 169.909 82.0422 181.119 90.7293C192.33 99.4164 198.995 109.585 196.007 113.441Z" fill="black"/>
</svg>
